<svg width="20" height="20" viewBox="0 0 20 20" fill="none" xmlns="http://www.w3.org/2000/svg">
<path d="M10 1.25C5.48462 1.25 0.625 2.22781 0.625 4.375V15.625C0.625 17.7722 5.48462 18.75 10 18.75C14.5154 18.75 19.375 17.7722 19.375 15.625V4.375C19.375 2.22781 14.5154 1.25 10 1.25ZM18.125 11.875C18.125 12.4356 15.3607 13.75 10 13.75C4.63931 13.75 1.875 12.4356 1.875 11.875V9.79156C3.60956 10.7845 6.886 11.25 10 11.25C13.114 11.25 16.3904 10.7845 18.125 9.79156V11.875ZM18.125 8.125C18.125 8.68563 15.3607 10 10 10C4.63931 10 1.875 8.68563 1.875 8.125V6.04156C3.60956 7.0345 6.886 7.5 10 7.5C13.114 7.5 16.3904 7.0345 18.125 6.04156V8.125ZM10 2.5C15.3607 2.5 18.125 3.81437 18.125 4.375C18.125 4.93563 15.3607 6.25 10 6.25C4.63931 6.25 1.875 4.93563 1.875 4.375C1.875 3.81437 4.63931 2.5 10 2.5ZM10 17.5C4.63931 17.5 1.875 16.1856 1.875 15.625V13.5416C3.60956 14.5345 6.886 15 10 15C13.114 15 16.3904 14.5345 18.125 13.5416V15.625C18.125 16.1856 15.3607 17.5 10 17.5Z" fill="white"/>
</svg>
