<svg width="20" height="20" viewBox="0 0 20 20" fill="none" xmlns="http://www.w3.org/2000/svg">
<g clip-path="url(#clip0_222_125)">
<path d="M10.5463 8.92125C6.03563 8.92125 2.5 7.09937 2.5 4.77313C2.5 2.44688 6.03563 0.625 10.5463 0.625C15.0569 0.625 18.5906 2.4475 18.5906 4.77313C18.5906 7.09875 15.0575 8.92125 10.5463 8.92125ZM10.5463 1.875C6.54188 1.875 3.75 3.4025 3.75 4.77313C3.75 6.14375 6.54 7.67125 10.5444 7.67125C14.5487 7.67125 17.3406 6.14437 17.3406 4.77313C17.3406 3.40188 14.55 1.875 10.5463 1.875Z" fill="white"/>
<path d="M10.5475 11.3938C6.0375 11.3938 2.50375 9.57251 2.5 7.24626V4.77313H3.75V7.24438C3.75 8.61563 6.54125 10.1444 10.5463 10.1444C14.4769 10.1444 17.2388 8.67251 17.3394 7.32063V4.77313H18.5894V7.24438C18.5938 9.57126 15.0625 11.3938 10.5475 11.3938Z" fill="white"/>
<path d="M11.1329 16.9031C6.87793 16.9031 3.42918 15.265 3.1123 13.0906L4.34918 12.91C4.54293 14.2337 7.31543 15.6506 11.1336 15.6506C15.1386 15.6506 17.9298 14.1225 17.9298 12.7506C17.9298 12.0544 17.2379 11.3412 16.0311 10.7931L16.5486 9.655C18.2454 10.4256 19.1798 11.5256 19.1798 12.7506C19.1792 15.0806 15.6442 16.9031 11.1329 16.9031Z" fill="white"/>
<path d="M11.1323 19.375C6.62039 19.375 3.08602 17.5519 3.08602 15.225V12.9912H4.33602V15.225C4.33602 16.5969 7.12477 18.125 11.1323 18.125C12.8429 18.1613 14.5414 17.829 16.1123 17.1506C17.2673 16.6069 17.9285 15.9056 17.9285 15.225V12.7537H19.1785V15.225C19.1785 16.4262 18.2798 17.5119 16.646 18.2806C14.9082 19.0376 13.0275 19.4109 11.1323 19.375ZM14.7241 10.1544V9.52937L14.3529 9.75L14.0929 9.79687C12.4589 10.5597 10.6707 10.9346 8.86789 10.8925C4.86289 10.8925 2.07164 9.36437 2.07164 7.9925C2.07164 7.41062 2.55727 6.80937 3.43914 6.29937L2.81414 5.2175C1.52914 5.96 0.822266 6.94562 0.822266 7.9925C0.822266 10.3194 4.35664 12.1425 8.86852 12.1425C11.0184 12.2085 13.1479 11.7089 15.0441 10.6937L15.3435 10.5112V10.16L14.7241 10.1544Z" fill="white"/>
<path d="M8.86754 14.6144C4.35566 14.6144 0.821289 12.7913 0.821289 10.4644V7.99313H2.07129V10.465C2.07129 11.8363 4.86254 13.365 8.86754 13.365C12.8725 13.365 15.6632 11.8369 15.6632 10.465V9.48438H16.9132V10.4644C16.9138 12.7913 13.3794 14.6144 8.86754 14.6144Z" fill="white"/>
</g>
<defs>
<clipPath id="clip0_222_125">
<rect width="20" height="20" fill="white"/>
</clipPath>
</defs>
</svg>
