<svg width="20" height="20" viewBox="0 0 20 20" fill="none" xmlns="http://www.w3.org/2000/svg">
<g clip-path="url(#clip0_222_100)">
<path fill-rule="evenodd" clip-rule="evenodd" d="M7.0651 11.3533C3.73762 11.3533 0.363281 10.7323 0.363281 9.56063C0.363281 8.22496 4.71009 7.6157 8.40077 7.79145C8.7054 7.81488 8.68197 8.28354 8.37734 8.26011C7.94383 8.23667 7.51032 8.23667 7.0651 8.23667C3.25725 8.23667 0.83194 9.00996 0.83194 9.56063C0.83194 10.3339 4.95613 11.0486 8.10786 10.8612C8.41249 10.8377 8.44764 11.3181 8.13129 11.3298C7.7798 11.3415 7.42831 11.3533 7.0651 11.3533Z" fill="#004EFF"/>
<path fill-rule="evenodd" clip-rule="evenodd" d="M12.6538 14.8565C9.94735 14.8565 7.74465 12.6538 7.74465 9.94728C7.74465 7.24078 9.94735 5.02637 12.6538 5.02637C15.3604 5.02637 17.563 7.24078 17.563 9.94728C17.563 12.6538 15.3604 14.8565 12.6538 14.8565ZM12.6538 5.49503C10.2051 5.49503 8.21331 7.49854 8.21331 9.94728C8.21331 12.396 10.2051 14.3878 12.6538 14.3878C15.1026 14.3878 17.0944 12.396 17.0944 9.94728C17.0944 7.49854 15.1026 5.49503 12.6538 5.49503ZM7.0651 19.9883C3.73762 19.9883 0.363281 19.379 0.363281 18.1957C0.363281 17.891 0.83194 17.891 0.83194 18.1957C0.83194 18.7346 3.25725 19.5196 7.0651 19.5196C10.8847 19.5196 13.31 18.7346 13.31 18.1957C13.31 17.891 13.7786 17.891 13.7786 18.1957C13.7786 19.379 10.4043 19.9883 7.0651 19.9883ZM7.0651 17.8325C3.73762 17.8325 0.363281 17.2115 0.363281 16.0398C0.363281 15.7352 0.83194 15.7352 0.83194 16.0398C0.83194 16.5788 3.25725 17.3638 7.0651 17.3638C10.8847 17.3638 13.31 16.5788 13.31 16.0398C13.31 15.7352 13.7786 15.7352 13.7786 16.0398C13.7786 17.2115 10.4043 17.8325 7.0651 17.8325Z" fill="#004EFF"/>
<path fill-rule="evenodd" clip-rule="evenodd" d="M13.5443 18.43C13.4154 18.43 13.31 18.3245 13.31 18.1957V14.5401C13.31 14.2238 13.7786 14.2238 13.7786 14.5401V18.1957C13.7786 18.3245 13.6732 18.43 13.5443 18.43ZM0.59761 18.43C0.457013 18.43 0.363281 18.3245 0.363281 18.1957V9.56063C0.363281 9.24429 0.83194 9.24429 0.83194 9.56063V18.1957C0.83194 18.3245 0.726492 18.43 0.59761 18.43ZM12.6538 12.9584C12.525 12.9584 12.4195 12.853 12.4195 12.7241V7.17047C12.4195 6.86584 12.8882 6.86584 12.8882 7.17047V12.7241C12.8882 12.853 12.7827 12.9584 12.6538 12.9584Z" fill="#004EFF"/>
<path fill-rule="evenodd" clip-rule="evenodd" d="M12.6534 12.5015C11.388 12.5015 10.9193 10.8729 11.4934 10.8729C11.6223 10.8729 11.7278 10.9783 11.7278 11.1072C11.7278 12.3374 13.5907 12.3374 13.5907 11.1072C13.5907 10.5917 13.1689 10.1816 12.6534 10.1816C11.8801 10.1816 11.2591 9.54892 11.2591 8.77564C11.2591 8.00235 11.8801 7.38138 12.6534 7.38138C13.9187 7.38138 14.3991 9.00997 13.825 9.00997C13.6961 9.00997 13.5907 8.90452 13.5907 8.77564C13.5907 7.55713 11.7278 7.55713 11.7278 8.77564C11.7278 9.29116 12.1378 9.71295 12.6534 9.71295C13.4267 9.71295 14.0593 10.3339 14.0593 11.1072C14.0476 11.8805 13.4267 12.5015 12.6534 12.5015Z" fill="#004EFF"/>
<path fill-rule="evenodd" clip-rule="evenodd" d="M17.2112 9.11541C16.9768 9.11541 16.8831 8.79906 17.0823 8.6819C18.3945 7.86175 19.1678 6.44405 19.1678 4.9092C19.1678 2.46046 17.176 0.468658 14.7273 0.468658C11.8685 0.468658 9.74779 3.15173 10.4039 5.92853C10.4742 6.22144 10.0173 6.33861 9.94697 6.03398C9.23226 2.95255 11.5638 0 14.7273 0C17.4338 0 19.6365 2.20269 19.6365 4.9092C19.6365 6.60808 18.7812 8.16637 17.3283 9.08026C17.2932 9.10369 17.2463 9.11541 17.2112 9.11541Z" fill="#004EFF"/>
<path fill-rule="evenodd" clip-rule="evenodd" d="M14.7275 5.9871C14.5986 5.9871 14.4932 5.88166 14.4932 5.75278V1.90978C14.4932 1.60515 14.9618 1.60515 14.9618 1.90978V5.75278C14.9618 5.88166 14.8564 5.9871 14.7275 5.9871Z" fill="#004EFF"/>
<path fill-rule="evenodd" clip-rule="evenodd" d="M15.9107 6.81898C15.5358 6.81898 15.7467 6.37375 15.7467 6.17457C15.7467 5.60046 15.2897 5.14352 14.7274 5.14352C13.9072 5.14352 13.2394 4.47568 13.2394 3.65553C13.2394 2.83538 13.9072 2.16754 14.7274 2.16754C16.063 2.16754 16.5786 3.88986 15.981 3.88986C15.8521 3.88986 15.7467 3.78441 15.7467 3.65553C15.7467 2.30814 13.708 2.30814 13.708 3.65553C13.708 4.21792 14.165 4.67486 14.7274 4.67486C16.3677 4.67486 16.4731 6.81898 15.9107 6.81898ZM12.6535 13.802C10.5211 13.802 8.78711 12.068 8.78711 9.94727C8.78711 7.81488 10.5211 6.08084 12.6535 6.08084C14.7859 6.08084 16.52 7.81488 16.52 9.94727C16.52 12.068 14.7859 13.802 12.6535 13.802ZM12.6535 6.5495C10.7789 6.5495 9.25577 8.07264 9.25577 9.94727C9.25577 11.8102 10.7789 13.3333 12.6535 13.3333C14.5282 13.3333 16.0513 11.8102 16.0513 9.94727C16.0513 8.07264 14.5282 6.5495 12.6535 6.5495Z" fill="#004EFF"/>
<path fill-rule="evenodd" clip-rule="evenodd" d="M16.8249 8.06092C16.6023 8.06092 16.5086 7.76801 16.696 7.63913C19.3674 5.74106 18.0317 1.47627 14.7277 1.47627C12.6187 1.47627 11.0135 3.39777 11.3885 5.47159C11.4353 5.77621 10.9784 5.85823 10.9198 5.5536C10.498 3.19859 12.3141 1.00761 14.7277 1.00761C16.8601 1.00761 18.5941 2.74165 18.5941 4.87405C18.5941 6.11599 17.9848 7.29935 16.9655 8.01406C16.9186 8.04921 16.8718 8.06092 16.8249 8.06092ZM7.0651 15.6649C3.73762 15.6649 0.363281 15.0557 0.363281 13.8723C0.363281 13.5677 0.83194 13.5677 0.83194 13.8723C0.83194 14.4112 3.25725 15.1962 7.0651 15.1962C9.42011 15.1962 11.5642 14.8916 12.6773 14.3995C12.9585 14.2824 13.1459 14.7042 12.8647 14.833C11.7048 15.3486 9.47869 15.6649 7.0651 15.6649ZM7.0651 13.5091C3.73762 13.5091 0.363281 12.8881 0.363281 11.7165C0.363281 11.4118 0.83194 11.4118 0.83194 11.7165C0.83194 12.2554 3.25725 13.0404 7.0651 13.0404C7.82667 13.0404 8.55309 13.0053 9.25608 12.9467C9.57242 12.9115 9.60757 13.3802 9.30294 13.4153C8.58824 13.4739 7.83838 13.5091 7.0651 13.5091Z" fill="#004EFF"/>
</g>
<defs>
<clipPath id="clip0_222_100">
<rect width="20" height="20" fill="white"/>
</clipPath>
</defs>
</svg>
