<svg width="18" height="18" viewBox="0 0 18 18" fill="none" xmlns="http://www.w3.org/2000/svg">
<path d="M16 8.70799V2.09999C16 1.43799 15.46 0.899994 14.8 0.899994H1.2C0.538 0.899994 0 1.43799 0 2.09999V10.9C0 11.562 0.538 12.1 1.2 12.1H8.818C8.806 12.232 8.8 12.364 8.8 12.5C8.8 15.036 10.862 17.1 13.4 17.1C15.936 17.1 18 15.036 18 12.5C18 10.928 17.206 9.53799 16 8.70799ZM17.178 12.1H15.592C15.544 10.832 15.272 9.74199 14.852 8.98999C16.11 9.51199 17.03 10.692 17.178 12.1ZM14.8 1.69999C15.02 1.69999 15.2 1.87999 15.2 2.09999V3.46199C14.306 3.29599 13.602 2.59199 13.438 1.69999H14.8ZM0.8 2.09999C0.8 1.99391 0.842143 1.89217 0.917157 1.81715C0.992172 1.74214 1.09391 1.69999 1.2 1.69999H2.562C2.396 2.59199 1.692 3.29599 0.8 3.46199V2.09999ZM0.8 4.26999C2.134 4.08999 3.19 3.03399 3.37 1.69999H12.63C12.808 3.03399 13.866 4.08999 15.2 4.26999V8.26599C14.6309 8.02371 14.0186 7.8992 13.4 7.89999C12.106 7.89999 10.936 8.43799 10.1 9.29999H3.37C3.19 7.96599 2.134 6.90799 0.8 6.72999V4.26999ZM0.8 7.53799C1.692 7.70199 2.396 8.40799 2.562 9.29999H1.2C1.09391 9.29999 0.992172 9.25785 0.917157 9.18284C0.842143 9.10782 0.8 9.00608 0.8 8.89999V7.53799ZM8.96 11.3H1.2C1.09391 11.3 0.992172 11.2579 0.917157 11.1828C0.842143 11.1078 0.8 11.0061 0.8 10.9V10.03C0.924 10.074 1.058 10.1 1.2 10.1H9.476C9.24676 10.4729 9.07294 10.8771 8.96 11.3ZM9.62 12.9H11.208C11.254 14.166 11.528 15.258 11.946 16.01C10.688 15.486 9.768 14.306 9.62 12.9ZM11.208 12.1H9.62C9.768 10.692 10.688 9.51199 11.946 8.98999C11.528 9.74199 11.254 10.832 11.208 12.1ZM13.4 16.3C12.848 16.3 12.094 15.016 12.008 12.9H14.79C14.704 15.016 13.95 16.3 13.4 16.3ZM12.008 12.1C12.094 9.98399 12.848 8.69999 13.4 8.69999C13.95 8.69999 14.704 9.98399 14.79 12.1H12.008ZM14.852 16.01C15.272 15.258 15.544 14.166 15.592 12.9H17.178C17.03 14.306 16.11 15.486 14.852 16.01Z" fill="#004EFF"/>
</svg>
