<svg width="138" height="33" viewBox="0 0 138 33" fill="none" xmlns="http://www.w3.org/2000/svg">
<path d="M25.574 32.7833L17.6377 25.0336V16.4675H25.8078L33.9765 24.577L25.574 32.7833Z" fill="white"/>
<path d="M0 24.5958L8.32399 16.4675H16.6776V24.9845L8.53853 32.935L0 24.5958Z" fill="white"/>
<path d="M25.574 16.3143L17.6377 8.56466V0H25.8078L33.9765 8.11093L25.574 16.3143Z" fill="white"/>
<path d="M0 8.12971L8.32399 0H16.6776V8.51553L8.53853 16.4675L0 8.12971Z" fill="white"/>
<path d="M16.6777 16.4676V8.51562L17.1334 8.07056L17.638 8.56476V16.4676H16.6777Z" fill="white"/>
<path d="M55.4597 14.167V26.7243H37.7598V5.76562H52.7536V14.167H55.4597ZM42.1481 14.167H48.4895V9.84782H42.1481V14.167ZM42.1481 22.6406H51.0713V17.8099H42.1481V22.6406Z" fill="white"/>
<path d="M62.7585 5.35531C62.7585 6.86103 61.566 7.87688 59.9725 7.87688C58.379 7.87688 57.1865 6.86103 57.1865 5.35531C57.1865 3.84959 58.379 2.83374 59.9725 2.83374C61.566 2.83374 62.7585 3.84959 62.7585 5.35531ZM57.7783 26.7243V10.2568H62.1667V26.7243H57.7783Z" fill="white"/>
<path d="M76.0551 10.2567V14.2912H70.452V22.6897H76.0551V26.7242H66.0621V14.2912H63.1519V10.2567H66.0621V6.63257H70.4505V10.2567H76.0536H76.0551Z" fill="white"/>
<path d="M82.0622 14.3477V26.7243H77.6738V10.2568H87.9597V14.3477H82.0622Z" fill="white"/>
<path d="M95.9597 9.88257C98.3595 9.88257 100.175 10.988 101.304 12.6296V10.2568H105.692V26.7243H101.304V24.4253C100.182 26.0249 98.3817 27.0972 95.9863 27.0986C91.6024 27.0986 88.229 23.5482 88.229 18.4906C88.229 13.433 91.6631 9.88401 95.9597 9.88401V9.88257ZM92.6632 18.4906C92.6632 21.2029 94.5526 23.0164 96.9865 23.015C99.4411 23.015 101.307 21.2072 101.307 18.4906C101.307 15.7956 99.4352 13.9619 96.985 13.9677C94.5378 13.9633 92.6618 15.7898 92.6632 18.4906Z" fill="white"/>
<path d="M119.587 10.2567V14.2912H113.984V22.6897H119.587V26.7242H109.594V14.2912H106.684V10.2567H109.594V6.63257H113.982V10.2567H119.585H119.587Z" fill="white"/>
<path d="M129.163 9.88403C133.514 9.88403 137.265 12.7495 137.797 17.2522C137.904 18.1163 137.846 18.7652 137.779 19.2897H124.938C125.091 21.8329 126.878 23.4514 129.313 23.4572C131.207 23.4572 132.829 22.45 133.234 20.6581H137.745C137.057 24.7071 133.396 27.0972 129.294 27.0972C124.187 27.0972 120.479 23.382 120.479 18.4993C120.479 13.6165 124.207 9.88692 129.163 9.88403ZM129.238 13.4027C127.272 13.4085 125.761 14.5861 125.249 16.4271H133.185C132.779 14.4026 131.006 13.4027 129.238 13.4027Z" fill="white"/>
</svg>
